<svg width="451.54501953125px" height="407.59999999999997px" xmlns="http://www.w3.org/2000/svg" viewBox="24.22749023437501 -128.79999999999998 451.54501953125 407.59999999999997" style="background: rgba(0, 0, 0, 0);" preserveAspectRatio="xMidYMid"><defs><linearGradient id="editing-gradow-gradient" x1="0" x2="1" y1="0.5" y2="0.5" gradientUnits="objectBoundingBox"><stop offset="0" stop-color="#f3c614"></stop><stop offset="1" stop-color="#f3c614"></stop></linearGradient><filter id="editing-gradow-filter" x="-100%" y="-100%" width="300%" height="300%"><feFlood flood-color="rgba(100%,98.82352941176474%,85.09803921568628%,0)" result="flood"></feFlood><feComposite operator="in" in2="SourceAlpha" in="flood" result="shadow"></feComposite><feOffset dx="-4" dy="-4" in="SourceGraphic" result="offset-1"></feOffset><feOffset dx="4" dy="4" in="shadow" result="offset-2"></feOffset><feMerge><feMergeNode in="offset-2"></feMergeNode><feMergeNode in="offset-1"></feMergeNode></feMerge></filter></defs><g filter="url(#editing-gradow-filter)"><g transform="translate(90.45501279830933, 117)"><path d="M29.12 0L29.12 0L11.76 0L11.76 0Q9.63 0 8.68-0.95L8.68-0.95L8.68-0.95Q7.73-1.90 7.73-4.03L7.73-4.03L7.73-76.61L7.73-76.61Q7.73-78.74 8.68-79.69L8.68-79.69L8.68-79.69Q9.63-80.64 11.76-80.64L11.76-80.64L61.71-80.64L61.71-80.64Q63.84-80.64 64.79-79.69L64.79-79.69L64.79-79.69Q65.74-78.74 65.74-76.61L65.74-76.61L65.74-63.28L65.74-63.28Q65.74-61.15 64.79-60.20L64.79-60.20L64.79-60.20Q63.84-59.25 61.71-59.25L61.71-59.25L33.15-59.25L33.15-47.60L52.64-47.60L52.64-47.60Q54.77-47.60 55.72-46.65L55.72-46.65L55.72-46.65Q56.67-45.70 56.67-43.57L56.67-43.57L56.67-30.13L56.67-30.13Q56.67-28 55.72-27.05L55.72-27.05L55.72-27.05Q54.77-26.10 52.64-26.10L52.64-26.10L33.15-26.10L33.15-4.03L33.15-4.03Q33.15-1.90 32.20-0.95L32.20-0.95L32.20-0.95Q31.25 0 29.12 0ZM145.26-59.36L145.26-21.17L145.26-21.17Q145.26-16.02 143.75-11.82L143.75-11.82L143.75-11.82Q142.24-7.62 138.38-4.65L138.38-4.65L138.38-4.65Q134.51-1.68 127.74 0L127.74 0L127.74 0Q120.96 1.68 110.54 1.68L110.54 1.68L110.54 1.68Q100.13 1.68 93.30 0L93.30 0L93.30 0Q86.46-1.68 82.60-4.65L82.60-4.65L82.60-4.65Q78.74-7.62 77.22-11.82L77.22-11.82L77.22-11.82Q75.71-16.02 75.71-21.17L75.71-21.17L75.71-59.36L75.71-59.36Q75.71-64.51 77.22-68.71L77.22-68.71L77.22-68.71Q78.74-72.91 82.60-75.94L82.60-75.94L82.60-75.94Q86.46-78.96 93.30-80.64L93.30-80.64L93.30-80.64Q100.13-82.32 110.54-82.32L110.54-82.32L110.54-82.32Q120.96-82.32 127.74-80.64L127.74-80.64L127.74-80.64Q134.51-78.96 138.38-75.94L138.38-75.94L138.38-75.94Q142.24-72.91 143.75-68.71L143.75-68.71L143.75-68.71Q145.26-64.51 145.26-59.36L145.26-59.36ZM101.14-55.33L101.14-25.20L101.14-25.20Q101.14-22.96 102.82-21.45L102.82-21.45L102.82-21.45Q104.50-19.94 110.54-19.94L110.54-19.94L110.54-19.94Q116.59-19.94 118.27-21.45L118.27-21.45L118.27-21.45Q119.95-22.96 119.95-25.20L119.95-25.20L119.95-55.33L119.95-55.33Q119.95-57.46 118.27-58.97L118.27-58.97L118.27-58.97Q116.59-60.48 110.54-60.48L110.54-60.48L110.54-60.48Q104.50-60.48 102.82-58.97L102.82-58.97L102.82-58.97Q101.14-57.46 101.14-55.33L101.14-55.33ZM227.81-59.36L227.81-21.17L227.81-21.17Q227.81-16.02 226.30-11.82L226.30-11.82L226.30-11.82Q224.78-7.62 220.92-4.65L220.92-4.65L220.92-4.65Q217.06-1.68 210.28 0L210.28 0L210.28 0Q203.50 1.68 193.09 1.68L193.09 1.68L193.09 1.68Q182.67 1.68 175.84 0L175.84 0L175.84 0Q169.01-1.68 165.14-4.65L165.14-4.65L165.14-4.65Q161.28-7.62 159.77-11.82L159.77-11.82L159.77-11.82Q158.26-16.02 158.26-21.17L158.26-21.17L158.26-59.36L158.26-59.36Q158.26-64.51 159.77-68.71L159.77-68.71L159.77-68.71Q161.28-72.91 165.14-75.94L165.14-75.94L165.14-75.94Q169.01-78.96 175.84-80.64L175.84-80.64L175.84-80.64Q182.67-82.32 193.09-82.32L193.09-82.32L193.09-82.32Q203.50-82.32 210.28-80.64L210.28-80.64L210.28-80.64Q217.06-78.96 220.92-75.94L220.92-75.94L220.92-75.94Q224.78-72.91 226.30-68.71L226.30-68.71L226.30-68.71Q227.81-64.51 227.81-59.36L227.81-59.36ZM183.68-55.33L183.68-25.20L183.68-25.20Q183.68-22.96 185.36-21.45L185.36-21.45L185.36-21.45Q187.04-19.94 193.09-19.94L193.09-19.94L193.09-19.94Q199.14-19.94 200.82-21.45L200.82-21.45L200.82-21.45Q202.50-22.96 202.50-25.20L202.50-25.20L202.50-55.33L202.50-55.33Q202.50-57.46 200.82-58.97L200.82-58.97L200.82-58.97Q199.14-60.48 193.09-60.48L193.09-60.48L193.09-60.48Q187.04-60.48 185.36-58.97L185.36-58.97L185.36-58.97Q183.68-57.46 183.68-55.33L183.68-55.33ZM283.81 0L283.81 0L246.06 0L246.06 0Q243.94 0 242.98-0.95L242.98-0.95L242.98-0.95Q242.03-1.90 242.03-4.03L242.03-4.03L242.03-76.61L242.03-76.61Q242.03-78.74 242.98-79.69L242.98-79.69L242.98-79.69Q243.94-80.64 246.06-80.64L246.06-80.64L283.81-80.64L283.81-80.64Q297.81-80.64 304.58-75.04L304.58-75.04L304.58-75.04Q311.36-69.44 311.36-57.79L311.36-57.79L311.36-22.85L311.36-22.85Q311.36-11.20 304.58-5.60L304.58-5.60L304.58-5.60Q297.81 0 283.81 0ZM280.78-59.25L267.46-59.25L267.46-21.17L280.78-21.17L280.78-21.17Q283.47-21.17 284.76-22.51L284.76-22.51L284.76-22.51Q286.05-23.86 286.05-26.66L286.05-26.66L286.05-53.87L286.05-53.87Q286.05-56.67 284.76-57.96L284.76-57.96L284.76-57.96Q283.47-59.25 280.78-59.25L280.78-59.25Z" fill="url(#editing-gradow-gradient)"></path></g></g><style>text {
  font-size: 64px;
  font-family: Arial Black;
  dominant-baseline: central;
  text-anchor: middle;
}</style></svg>